<svg width="16" height="16" viewBox="0 0 16 16" fill="none" xmlns="http://www.w3.org/2000/svg">
    <g clip-path="url(#clip0_925_301)">
        <rect width="16" height="16" fill="none"/>
        <mask id="mask0_925_301" style="mask-type:luminance" maskUnits="userSpaceOnUse" x="2" y="0" width="12" height="16">
            <path d="M14 0.578613H2.01007V15.7629H14V0.578613Z" fill="white"/>
        </mask>
        <g mask="url(#mask0_925_301)">
            <path d="M7.49388 6.03415L7.32106 6.3089L7.31892 6.31299C7.24962 6.42329 7.18225 6.53564 7.11829 6.64594C5.89743 4.90557 4.08452 3.58804 2.01007 2.93539V2.26437C4.20301 2.90374 6.14938 4.2417 7.49388 6.03415ZM8.67304 6.3038C8.7402 6.40898 8.80971 6.5244 8.87901 6.64594C10.101 4.90352 11.9149 3.58702 13.9883 2.93641V2.26539C11.7964 2.90374 9.84899 4.2417 8.50343 6.03517L8.67197 6.3038H8.67304ZM10.4808 1.21953H13.9894V0.578125H10.4808C9.47233 0.578125 8.53551 1.09799 8.03501 1.93549L7.99972 1.99371L7.96443 1.93549C7.46287 1.09799 6.52497 0.578125 5.51863 0.578125H2.01007V1.22055H5.51863C6.68175 1.22055 7.64125 2.1224 7.66349 3.23261H8.33595C8.35713 2.12138 9.31662 1.21953 10.4808 1.21953ZM12.7728 5.13334C13.1677 4.90455 13.5764 4.7105 13.9883 4.55524V10.0327C13.9883 11.5412 13.3758 12.9691 12.2638 14.0517C11.9267 14.3796 11.5479 14.6686 11.1359 14.9117C10.7828 15.1211 10.406 15.2937 10.0165 15.4265C9.67724 15.5439 9.33245 15.6297 8.99216 15.6828C8.67946 15.7359 8.34537 15.7625 7.99972 15.7625C7.65408 15.7625 7.32748 15.7359 7.00836 15.6818C6.66806 15.6307 6.32328 15.5439 5.98298 15.4254C5.48462 15.2559 5.00872 15.02 4.57111 14.7248C4.28514 14.5379 4.00453 14.3112 3.73674 14.0517C2.6226 12.9681 2.01007 11.5412 2.01007 10.0327V4.55524C2.42732 4.71355 2.83602 4.90762 3.2255 5.13334C4.66287 5.97288 5.78449 7.18522 6.46957 8.63961C6.58572 8.87759 6.69137 9.13496 6.78313 9.40359L6.82591 9.52818L6.86013 9.40154C6.94013 9.10126 7.02226 8.84082 7.10867 8.60796C7.16856 8.43739 7.24106 8.25456 7.33603 8.03293C7.43314 7.81538 7.51741 7.63462 7.61451 7.45383C7.73728 7.21483 7.86626 6.98401 7.99865 6.76953C8.13212 6.98401 8.26109 7.2138 8.38386 7.45383C8.48632 7.64481 8.57807 7.84398 8.66235 8.03191C8.75517 8.24946 8.82789 8.43227 8.88971 8.60796C8.97719 8.8449 9.05932 9.10433 9.13824 9.40154L9.17247 9.52818L9.21524 9.40461C9.30914 9.13191 9.4148 8.87554 9.52987 8.64063C10.2139 7.18623 11.3355 5.9739 12.7728 5.13536V5.13334ZM4.27231 11.8855C4.27231 10.8151 3.92881 9.79271 3.27992 8.92764C3.10919 8.69988 2.93526 8.50173 2.74958 8.32402L2.68129 8.25865V10.0327C2.68129 11.101 3.02488 12.1234 3.67364 12.9875C3.84432 13.2152 4.01843 13.4134 4.20408 13.5911L4.27231 13.6565V11.8855ZM6.5346 11.8844C6.5346 11.1746 6.42787 10.478 6.21655 9.81416C5.72888 8.24741 4.68212 6.86656 3.2682 5.92692C3.08785 5.8064 2.91391 5.7012 2.73891 5.60621L2.67915 5.57354V7.40378L2.69408 7.41502C2.8755 7.55087 3.0505 7.70303 3.2159 7.86646C4.32792 8.94603 4.94028 10.3728 4.94028 11.8855V14.1937L4.95739 14.2049C5.13128 14.3214 5.30539 14.4235 5.48676 14.5175C5.62322 14.589 5.77487 14.6584 5.9509 14.7299C6.13655 14.8034 6.30937 14.8627 6.48134 14.9097L6.53139 14.9219V11.8855L6.5346 11.8844ZM8.79367 11.8885C8.79367 11.1695 8.7094 10.4607 8.54278 9.78454C8.47883 9.51082 8.40204 9.24221 8.31349 8.98789C8.23243 8.74686 8.13854 8.50683 8.03608 8.27194L7.99865 8.18817L7.96122 8.27194C7.8577 8.50683 7.76487 8.74788 7.68381 8.98789C7.59633 9.23609 7.52168 9.4955 7.45452 9.78147C7.28791 10.4576 7.20364 11.1654 7.20364 11.8865V15.0649L7.23893 15.069C7.43848 15.0945 7.60703 15.1098 7.76808 15.1149H7.7745C7.84615 15.118 7.9208 15.1211 7.99758 15.1211C8.03822 15.1211 8.07758 15.119 8.11715 15.118C8.15329 15.117 8.19072 15.1149 8.22816 15.1149C8.39991 15.1088 8.5738 15.0935 8.75838 15.069L8.77121 15.0669L8.7926 15.0616V11.8885H8.79367ZM13.3172 8.25865L13.2487 8.32402C13.0641 8.50071 12.886 8.70395 12.7185 8.92764C12.0696 9.79271 11.7261 10.8151 11.7261 11.8855V13.6565L11.7943 13.5911C11.9789 13.4144 12.1573 13.2112 12.3247 12.9875C12.9735 12.1224 13.3172 11.101 13.3172 10.0327V8.25865ZM9.78076 9.81621C9.56944 10.477 9.46271 11.1736 9.46271 11.8865V14.9229L9.51404 14.9097C9.689 14.8627 9.86289 14.8045 10.0453 14.7309C10.2085 14.6645 10.3602 14.5951 10.5084 14.5185C10.69 14.4245 10.8628 14.3224 11.0388 14.206L11.056 14.1947V11.8865C11.056 10.3739 11.6685 8.94703 12.7803 7.86748C12.9416 7.70815 13.1165 7.55597 13.3022 7.41604L13.3129 7.40787L13.3054 7.3997H13.3172V5.57557L13.2573 5.60723C13.0791 5.70325 12.9009 5.8115 12.7281 5.92794C11.3152 6.86656 10.2684 8.24741 9.78076 9.81519V9.81621Z" fill="#003057"/>
        </g>
    </g>
    <defs>
        <clipPath id="clip0_925_301">
            <rect width="16" height="16" fill="none"/>
        </clipPath>
    </defs>
</svg>
