<svg width="27" height="37" viewBox="0 0 27 37" fill="none" xmlns="http://www.w3.org/2000/svg">
<mask id="mask0_492_863" style="mask-type:luminance" maskUnits="userSpaceOnUse" x="0" y="0" width="27" height="37">
<path d="M26.9969 0.833907H0V36.9441H26.9969V0.833907Z" fill="white"/>
</mask>
<g mask="url(#mask0_492_863)">
<path d="M12.3476 13.8071L11.9583 14.4605L11.9536 14.4703C11.7974 14.7326 11.646 14.9997 11.5018 15.2621C8.75313 11.1232 4.67089 7.98994 0 6.43784V4.84207C4.9376 6.36258 9.32017 9.54443 12.3476 13.8071ZM15.0026 14.4484C15.154 14.6985 15.3101 14.973 15.4663 15.2621C18.2174 11.1183 22.3021 7.98751 26.9706 6.44028V4.8445C22.0354 6.36258 17.6504 9.54443 14.6206 13.8096L15.0002 14.4484H15.0026ZM19.0728 2.3573H26.973V0.831954H19.0728C16.8022 0.831954 14.6926 2.06826 13.5658 4.05997L13.4865 4.19841L13.4072 4.05997C12.2779 2.06826 10.1659 0.831954 7.90013 0.831954H0V2.35973H7.90013C10.5191 2.35973 12.6792 4.50445 12.7296 7.14469H14.2434C14.2914 4.50202 16.4514 2.3573 19.0728 2.3573ZM24.2339 11.6649C25.1229 11.1208 26.0431 10.6593 26.9706 10.2901V23.3163C26.9706 26.9038 25.5914 30.2994 23.0878 32.874C22.3285 33.6537 21.4755 34.3411 20.5481 34.9192C19.7528 35.4171 18.9046 35.8276 18.0276 36.1433C17.2636 36.4226 16.4875 36.6267 15.721 36.753C15.017 36.8793 14.265 36.9424 13.4865 36.9424C12.708 36.9424 11.9728 36.8793 11.2543 36.7505C10.4879 36.6291 9.7118 36.4226 8.94534 36.1409C7.82327 35.7377 6.75167 35.1766 5.76652 34.4747C5.12263 34.0302 4.49069 33.491 3.88761 32.874C1.37916 30.297 0 26.9038 0 23.3163V10.2901C0.939467 10.6666 1.85971 11.1281 2.7367 11.6649C5.97318 13.6614 8.49842 16.5445 10.041 20.0033C10.3029 20.5692 10.5408 21.1813 10.7474 21.8201L10.8435 22.1164L10.9204 21.8152C11.1006 21.1011 11.2856 20.4818 11.4802 19.928C11.6148 19.5224 11.7781 19.0876 11.992 18.5605C12.2107 18.0431 12.4004 17.6133 12.6191 17.1833C12.8954 16.6149 13.1862 16.066 13.4841 15.556C13.7844 16.066 14.0751 16.6126 14.3515 17.1833C14.5821 17.6375 14.7888 18.1111 14.9786 18.5581C15.1876 19.0754 15.351 19.5102 15.4904 19.928C15.6874 20.4915 15.8724 21.1084 16.0502 21.8152L16.1271 22.1164L16.2232 21.8225C16.4346 21.174 16.6725 20.5643 16.932 20.0057C18.4722 16.5469 20.9974 13.6638 24.2339 11.6697V11.6649ZM5.09378 27.7223C5.09378 25.1768 4.3201 22.7455 2.85924 20.6882C2.47481 20.1466 2.08316 19.6754 1.66509 19.2527L1.51131 19.0973V23.3163C1.51131 25.857 2.28499 28.2882 3.74585 30.3431C4.13028 30.8848 4.52193 31.356 4.94001 31.7786L5.09378 31.9341V27.7223ZM10.1876 27.7199C10.1876 26.0318 9.9473 24.3753 9.47153 22.7965C8.37349 19.0706 6.01642 15.7867 2.83281 13.5521C2.42675 13.2655 2.03511 13.0153 1.64106 12.7894L1.50651 12.7117V17.0643L1.54015 17.091C1.94861 17.4141 2.34266 17.776 2.71508 18.1646C5.21871 20.732 6.5979 24.1251 6.5979 27.7223V33.2116L6.63633 33.2384C7.02797 33.5153 7.4196 33.7582 7.82809 33.9816C8.13563 34.1516 8.4768 34.3168 8.87325 34.4868C9.29132 34.6617 9.68059 34.8026 10.0674 34.9143L10.1803 34.9435V27.7223L10.1876 27.7199ZM15.2741 27.7296C15.2741 26.0197 15.0843 24.334 14.7095 22.7261C14.5653 22.0751 14.3923 21.4363 14.1929 20.8315C14.0103 20.2583 13.7989 19.6875 13.5682 19.1289L13.4841 18.9297L13.4 19.1289C13.1669 19.6875 12.9579 20.2608 12.7753 20.8315C12.5783 21.4218 12.4101 22.0387 12.2587 22.7188C11.8839 24.3267 11.694 26.01 11.694 27.7248V35.2835L11.7734 35.2932C12.2226 35.3539 12.6023 35.3903 12.9651 35.4025H12.9795C13.1405 35.4098 13.3087 35.4171 13.4817 35.4171C13.573 35.4171 13.6619 35.4123 13.7508 35.4098C13.8325 35.4074 13.9166 35.4025 14.0007 35.4025C14.3875 35.388 14.7791 35.3515 15.1948 35.2932L15.2237 35.2883L15.2717 35.2757V27.7296H15.2741ZM25.4593 19.0973L25.3055 19.2527C24.8898 19.6729 24.4886 20.1563 24.1113 20.6882C22.6505 22.7455 21.8768 25.1768 21.8768 27.7223V31.9341L22.0306 31.7786C22.4462 31.3584 22.8475 30.875 23.2247 30.3431C24.6856 28.2858 25.4593 25.857 25.4593 23.3163V19.0973ZM17.4966 22.8014C17.0209 24.3729 16.7806 26.0294 16.7806 27.7248V34.9459L16.8959 34.9143C17.29 34.8026 17.6817 34.6641 18.0925 34.4892C18.4601 34.3314 18.8013 34.1662 19.1353 33.984C19.5438 33.7606 19.933 33.5177 20.3294 33.2408L20.3679 33.2141V27.7248C20.3679 24.1275 21.7471 20.7344 24.2507 18.167C24.6135 17.7881 25.0075 17.4262 25.4256 17.0935L25.4497 17.074L25.4328 17.0546H25.4593V12.7165L25.3247 12.7919C24.9235 13.0202 24.5222 13.2776 24.133 13.5546C20.9517 15.7867 18.5947 19.0706 17.4966 22.799V22.8014Z" fill="white"/>
</g>
</svg>
